<?xml version="1.0" encoding="utf-8"?>
<!-- Generator: Adobe Illustrator 16.0.0, SVG Export Plug-In . SVG Version: 6.00 Build 0)  -->
<!DOCTYPE svg PUBLIC "-//W3C//DTD SVG 1.1//EN" "http://www.w3.org/Graphics/SVG/1.1/DTD/svg11.dtd">
<svg version="1.1" id="Layer_2" xmlns="http://www.w3.org/2000/svg" xmlns:xlink="http://www.w3.org/1999/xlink" x="0px" y="0px"
	 width="599.97px" height="754.572px" viewBox="0 0 599.97 754.572" enable-background="new 0 0 599.97 754.572"
	 xml:space="preserve">
<polygon opacity="0.3" fill="#80CCE0" points="233.777,175.303 330.399,44.504 344.725,116.715 "/>
<polygon opacity="0.3" fill="#80CCE0" points="428.18,194.188 470.019,187.492 440.369,231.489 "/>
<polygon opacity="0.3" fill="#80CCE0" points="411.575,354.871 478.424,294.614 449.1,361.566 "/>
<polygon opacity="0.3" fill="#80CCE0" points="338.539,541.378 355.246,499.055 396.627,485.243 "/>
<polygon opacity="0.3" fill="#80CCE0" points="351.421,543.928 457.586,486.859 407.532,575.81 "/>
<polygon opacity="0.7" fill="#80CCE0" points="398.213,502.642 429.371,513.31 447.065,445.733 "/>
<polygon opacity="0.3" fill="#80CCE0" points="449.1,424.59 537.744,304.179 527.792,434.579 "/>
<polygon opacity="0.7" fill="#80CCE0" points="518.403,349.132 518.403,275.486 541.039,312.309 "/>
<polygon opacity="0.7" fill="#80CCE0" points="529.161,228.212 460.773,138.396 478.424,216.186 "/>
<polygon opacity="0.3" fill="#80CCE0" points="465.726,275.018 444.999,209.491 474.66,252.531 "/>
<polygon opacity="0.7" fill="#80CCE0" points="372.403,260.661 301.016,200.883 372.403,228.212 "/>
<polygon opacity="0.3" fill="#80CCE0" points="170.403,149.234 108.552,138.396 170.403,129.468 "/>
<polygon opacity="0.3" fill="#80CCE0" points="44.4,93.761 107.844,40.678 115.815,78.458 "/>
<polygon opacity="0.7" fill="#80CCE0" points="107.724,88.979 151.403,91.21 151.403,123.411 "/>
<polygon opacity="0.3" fill="#80CCE0" points="527.792,106.194 493.422,43.7 529.161,84.196 "/>
<polygon opacity="0.7" fill="#80CCE0" points="460.456,89 372.461,89 440.369,66.523 "/>
<polygon opacity="0.3" fill="#80CCE0" points="254.978,636.371 306.097,563.294 326.866,574.064 "/>
<polyline opacity="0.3" fill="#80CCE0" points="254.978,636.371 255.403,636.08 336.651,580.217 362.085,592.525 "/>
<polygon fill="none" stroke="#44BBE3" stroke-miterlimit="10" points="264.261,84.746 434.184,40.993 324.294,275.018 
	325.311,121.375 "/>
<polygon fill="none" stroke="#44BBE3" stroke-miterlimit="10" points="287.665,228.212 550.177,40.993 489.128,143.76 "/>
<polyline fill="none" stroke="#44BBE3" stroke-miterlimit="10" points="521.688,211.933 398.571,263.825 550.177,40.993 
	521.688,211.933 489.128,143.76 "/>
<polygon fill="none" stroke="#44BBE3" stroke-miterlimit="10" points="398.571,211.933 434.184,40.678 242.894,228.212 "/>
<polyline fill="none" stroke="#44BBE3" stroke-miterlimit="10" points="242.894,228.212 256.121,134.445 434.184,40.678 
	209.316,134.603 264.261,84.746 "/>
<polygon fill="none" stroke="#44BBE3" stroke-miterlimit="10" points="512.531,449.01 480.987,183.443 418.92,391.013 "/>
<polygon fill="none" stroke="#44BBE3" stroke-miterlimit="10" points="561.371,307.578 405.694,424.59 528.81,391.013 "/>
<polygon fill="none" stroke="#44BBE3" stroke-miterlimit="10" points="561.371,307.578 524.741,476.482 494.215,414.416 "/>
<polygon fill="none" stroke="#44BBE3" stroke-miterlimit="10" points="145.213,109.166 242.894,32.854 205.247,175.303 
	156.406,59.308 "/>
<polyline fill="none" stroke="#44BBE3" stroke-miterlimit="10" points="145.213,109.166 330.399,40.678 242.894,32.854 "/>
<polygon fill="none" stroke="#44BBE3" stroke-miterlimit="10" points="411.575,324.5 537.744,245.72 489.921,434.757 
	466.519,396.416 471.098,324.5 "/>
<polyline fill="none" stroke="#44BBE3" stroke-miterlimit="10" points="471.098,323.786 537.744,245.363 466.519,395.971 "/>
<g>
	<g>
		<g>
			<path fill="#44BBE3" d="M255.846,636.674c14.207-20.45,28.415-40.9,42.622-61.351c2.497-3.594,4.994-7.188,7.49-10.782
				c0.967-1.391-0.277-0.788,0.548-0.359c2.937,1.522,5.872,3.045,8.808,4.567c3.066,1.59,6.133,3.18,9.198,4.771
				c0.668,0.346,1.336,0.692,2.004,1.038c-0.771-0.399,0.372-1.307-0.572-0.484c-2.882,2.511-5.764,5.021-8.646,7.53
				c-20.798,18.115-41.596,36.229-62.394,54.344c-0.585,0.509,0.268,1.354,0.848,0.848c23.847-20.769,47.692-41.537,71.538-62.307
				c0.285-0.247,0.208-0.771-0.121-0.941c-6.923-3.591-13.846-7.181-20.769-10.771c-0.308-0.159-0.627-0.063-0.821,0.216
				c-16.923,24.359-33.846,48.718-50.77,73.077C254.367,636.705,255.408,637.305,255.846,636.674z"/>
		</g>
	</g>
	<g>
		<g>
			<path fill="#44BBE3" d="M255.63,636.889c19.007-13.124,38.015-26.248,57.021-39.373c7.972-5.505,15.944-11.01,23.917-16.515
				c0.565-0.391,0.27-0.028-0.18-0.246c0.587,0.284,1.174,0.568,1.762,0.853c2.902,1.404,5.804,2.809,8.706,4.213
				c4.976,2.408,9.95,4.815,14.926,7.223c0.048-0.365,0.096-0.73,0.144-1.096c-35.586,14.615-71.172,29.23-106.758,43.846
				c-0.706,0.289-0.397,1.451,0.318,1.156c35.586-14.615,71.172-29.23,106.758-43.846c0.427-0.175,0.667-0.843,0.144-1.096
				c-8.479-4.104-16.956-8.206-25.435-12.309c-0.186-0.091-0.423-0.127-0.605,0c-27.107,18.718-54.216,37.436-81.323,56.154
				C254.393,636.289,254.992,637.33,255.63,636.889z"/>
		</g>
	</g>
	<g>
		<g>
			<path fill="#44BBE3" d="M326.288,574.224c1.094,3.548,2.188,7.096,3.283,10.643c0.227,0.737,1.386,0.423,1.156-0.318
				c-1.094-3.548-2.188-7.096-3.283-10.643C327.217,573.168,326.058,573.482,326.288,574.224L326.288,574.224z"/>
		</g>
	</g>
	<g>
		<g>
			<path fill="#44BBE3" d="M336.051,602.972c0.035,0.888,0.071,1.774,0.107,2.661c0.042,1.046-0.365,2.397,0.533,2.089
				c-0.453,0.155-0.906,0.312-1.359,0.468c-2.572,0.886-5.145,1.771-7.717,2.657c-9.307,3.204-18.613,6.409-27.92,9.613
				c-14.843,5.111-29.686,10.222-44.527,15.333c-0.728,0.25-0.415,1.409,0.318,1.156c27.18-9.358,54.359-18.717,81.538-28.076
				c0.247-0.085,0.452-0.301,0.44-0.578c-0.071-1.774-0.143-3.549-0.215-5.323C337.22,602.2,336.02,602.197,336.051,602.972
				L336.051,602.972z"/>
		</g>
	</g>
</g>
<polygon fill="none" stroke="#44BBE3" stroke-miterlimit="10" points="338.539,563.294 454.716,482.078 418.92,590.157 "/>
<polygon fill="none" stroke="#44BBE3" stroke-miterlimit="10" points="362.085,602.972 405.694,595.896 388.721,623.633 "/>
<polygon fill="none" stroke="#44BBE3" stroke-miterlimit="10" points="372.116,521.293 411.575,385.04 440.369,472.514 "/>
<polygon fill="none" stroke="#44BBE3" stroke-miterlimit="10" points="88.397,66.5 151.522,22.503 145.213,66.5 "/>
<polygon fill="none" stroke="#44BBE3" stroke-miterlimit="10" points="140.689,44.504 179.903,32.854 179.903,54.546 "/>
<polygon fill="none" stroke="#44BBE3" stroke-miterlimit="10" points="454.716,536.117 502.131,461.993 494.215,528.944 "/>
<polygon fill="none" stroke="#44BBE3" stroke-miterlimit="10" points="544.622,187.492 550.177,294.614 571.403,228.212 "/>
<polygon fill="none" stroke="#44BBE3" stroke-miterlimit="10" points="512.531,134.445 558.012,109.166 535.272,200.883 "/>
<polygon fill="none" stroke="#44BBE3" stroke-miterlimit="10" points="372.487,115.759 483.903,54.546 483.903,123.411 "/>
<polygon fill="none" stroke="#44BBE3" stroke-miterlimit="10" points="372.116,241.053 512.531,237.228 428.18,284.094 "/>
<polygon fill="none" stroke="#44BBE3" stroke-miterlimit="10" points="355.246,499.055 405.694,476.482 338.539,541.378 "/>
</svg>
