<?xml version="1.0" encoding="utf-8"?>
<!-- Generator: Adobe Illustrator 16.0.0, SVG Export Plug-In . SVG Version: 6.00 Build 0)  -->
<!DOCTYPE svg PUBLIC "-//W3C//DTD SVG 1.1//EN" "http://www.w3.org/Graphics/SVG/1.1/DTD/svg11.dtd">
<svg version="1.1" id="Layer_2" xmlns="http://www.w3.org/2000/svg" xmlns:xlink="http://www.w3.org/1999/xlink" x="0px" y="0px"
	 width="524.567px" height="691.575px" viewBox="0 0 524.567 691.575" enable-background="new 0 0 524.567 691.575"
	 xml:space="preserve">
<polygon opacity="0.3" fill="#80CCE0" points="158.374,175.303 254.996,44.504 269.322,116.715 "/>
<polygon opacity="0.3" fill="#80CCE0" points="352.777,194.188 394.616,187.492 364.966,231.489 "/>
<polygon opacity="0.3" fill="#80CCE0" points="336.172,354.871 403.021,294.614 373.697,361.566 "/>
<polygon opacity="0.3" fill="#80CCE0" points="263.136,541.378 279.843,499.055 321.225,485.243 "/>
<polygon opacity="0.3" fill="#80CCE0" points="276.019,543.928 382.184,486.859 332.129,575.81 "/>
<polygon opacity="0.7" fill="#80CCE0" points="322.811,502.642 353.968,513.31 371.662,445.733 "/>
<polygon opacity="0.3" fill="#80CCE0" points="373.697,424.59 462.341,304.179 452.39,434.579 "/>
<polygon opacity="0.7" fill="#80CCE0" points="443,349.132 443,275.486 465.636,312.309 "/>
<polygon opacity="0.7" fill="#80CCE0" points="453.758,228.212 385.37,138.396 403.021,216.186 "/>
<polygon opacity="0.3" fill="#80CCE0" points="390.323,275.018 369.596,209.491 399.257,252.531 "/>
<polygon opacity="0.7" fill="#80CCE0" points="297,260.661 225.613,200.883 297,228.212 "/>
<polygon opacity="0.3" fill="#80CCE0" points="114,149.234 52.149,138.396 114,129.468 "/>
<polygon opacity="0.3" fill="#80CCE0" points="7.998,89.761 71.441,36.678 79.412,74.458 "/>
<polygon opacity="0.7" fill="#80CCE0" points="51.321,88.979 95,91.21 95,123.411 "/>
<polygon opacity="0.3" fill="#80CCE0" points="452.39,106.194 418.02,43.7 453.758,84.196 "/>
<polygon opacity="0.7" fill="#80CCE0" points="385.053,89 297.059,89 364.966,66.523 "/>
<polygon opacity="0.3" fill="#80CCE0" points="179.575,636.371 230.694,563.294 251.463,574.064 "/>
<polyline opacity="0.3" fill="#80CCE0" points="179.575,636.371 180,636.08 261.248,580.217 286.683,592.525 "/>
<polygon fill="none" stroke="#44BBE3" stroke-miterlimit="10" points="188.858,84.746 358.781,40.993 248.892,275.018 
	249.908,121.375 "/>
<polygon fill="none" stroke="#44BBE3" stroke-miterlimit="10" points="212.262,228.212 474.774,40.993 413.726,143.76 "/>
<polyline fill="none" stroke="#44BBE3" stroke-miterlimit="10" points="446.285,211.933 323.168,263.825 474.774,40.993 
	446.285,211.933 413.726,143.76 "/>
<polygon fill="none" stroke="#44BBE3" stroke-miterlimit="10" points="323.168,211.933 358.781,40.678 167.491,228.212 "/>
<polyline fill="none" stroke="#44BBE3" stroke-miterlimit="10" points="167.491,228.212 180.718,134.445 358.781,40.678 
	133.913,134.603 188.858,84.746 "/>
<polygon fill="none" stroke="#44BBE3" stroke-miterlimit="10" points="437.128,449.01 405.584,183.443 343.518,391.013 "/>
<polygon fill="none" stroke="#44BBE3" stroke-miterlimit="10" points="485.968,307.578 330.291,424.59 453.407,391.013 "/>
<polygon fill="none" stroke="#44BBE3" stroke-miterlimit="10" points="485.968,307.578 449.338,476.482 418.812,414.416 "/>
<polygon fill="none" stroke="#44BBE3" stroke-miterlimit="10" points="88.811,109.166 186.491,32.854 148.844,175.303 
	100.003,59.308 "/>
<polyline fill="none" stroke="#44BBE3" stroke-miterlimit="10" points="88.811,109.166 273.996,40.678 186.491,32.854 "/>
<polygon fill="none" stroke="#44BBE3" stroke-miterlimit="10" points="336.172,324.5 462.341,245.72 414.519,434.757 
	391.116,396.416 395.695,324.5 "/>
<polyline fill="none" stroke="#44BBE3" stroke-miterlimit="10" points="395.695,323.786 462.341,245.363 391.116,395.971 "/>
<g>
	<g>
		<g>
			<path fill="#44BBE3" d="M180.443,636.674c14.207-20.45,28.415-40.9,42.622-61.351c2.497-3.594,4.994-7.188,7.49-10.782
				c0.967-1.391-0.277-0.788,0.548-0.359c2.937,1.522,5.872,3.045,8.808,4.567c3.066,1.59,6.133,3.18,9.198,4.771
				c0.668,0.346,1.336,0.692,2.004,1.038c-0.771-0.399,0.372-1.307-0.572-0.484c-2.882,2.511-5.764,5.021-8.646,7.53
				c-20.798,18.115-41.596,36.229-62.394,54.344c-0.585,0.509,0.268,1.354,0.848,0.848c23.847-20.769,47.692-41.537,71.538-62.307
				c0.285-0.247,0.208-0.771-0.121-0.941c-6.923-3.591-13.846-7.181-20.769-10.771c-0.308-0.159-0.627-0.063-0.821,0.216
				c-16.923,24.359-33.846,48.718-50.77,73.077C178.964,636.705,180.005,637.305,180.443,636.674z"/>
		</g>
	</g>
	<g>
		<g>
			<path fill="#44BBE3" d="M180.228,636.889c19.007-13.124,38.015-26.248,57.021-39.373c7.972-5.505,15.944-11.01,23.917-16.515
				c0.565-0.391,0.27-0.028-0.18-0.246c0.587,0.284,1.174,0.568,1.762,0.853c2.902,1.404,5.804,2.809,8.706,4.213
				c4.976,2.408,9.95,4.815,14.926,7.223c0.048-0.365,0.096-0.73,0.144-1.096c-35.586,14.615-71.172,29.23-106.758,43.846
				c-0.706,0.289-0.397,1.451,0.318,1.156c35.586-14.615,71.172-29.23,106.758-43.846c0.427-0.175,0.667-0.843,0.144-1.096
				c-8.479-4.104-16.956-8.206-25.435-12.309c-0.186-0.091-0.423-0.127-0.605,0c-27.107,18.718-54.216,37.436-81.323,56.154
				C178.99,636.289,179.589,637.33,180.228,636.889z"/>
		</g>
	</g>
	<g>
		<g>
			<path fill="#44BBE3" d="M250.885,574.224c1.094,3.548,2.188,7.096,3.283,10.643c0.227,0.737,1.386,0.423,1.156-0.318
				c-1.094-3.548-2.188-7.096-3.283-10.643C251.814,573.168,250.655,573.482,250.885,574.224L250.885,574.224z"/>
		</g>
	</g>
	<g>
		<g>
			<path fill="#44BBE3" d="M260.648,602.972c0.035,0.888,0.071,1.774,0.107,2.661c0.042,1.046-0.365,2.397,0.533,2.089
				c-0.453,0.155-0.906,0.312-1.359,0.468c-2.572,0.886-5.145,1.771-7.717,2.657c-9.307,3.204-18.613,6.409-27.92,9.613
				c-14.843,5.111-29.686,10.222-44.527,15.333c-0.728,0.25-0.415,1.409,0.318,1.156c27.18-9.358,54.359-18.717,81.538-28.076
				c0.247-0.085,0.452-0.301,0.44-0.578c-0.071-1.774-0.143-3.549-0.215-5.323C261.817,602.2,260.617,602.197,260.648,602.972
				L260.648,602.972z"/>
		</g>
	</g>
</g>
<polygon fill="none" stroke="#44BBE3" stroke-miterlimit="10" points="263.136,563.294 379.313,482.078 343.518,590.157 "/>
<polygon fill="none" stroke="#44BBE3" stroke-miterlimit="10" points="286.683,602.972 330.291,595.896 313.318,623.633 "/>
<polygon fill="none" stroke="#44BBE3" stroke-miterlimit="10" points="296.713,521.293 336.172,385.04 364.966,472.514 "/>
<polygon fill="none" stroke="#44BBE3" stroke-miterlimit="10" points="51.994,62.5 115.119,18.503 108.811,62.5 "/>
<polygon fill="none" stroke="#44BBE3" stroke-miterlimit="10" points="104.286,40.504 143.5,28.854 143.5,50.546 "/>
<polygon fill="none" stroke="#44BBE3" stroke-miterlimit="10" points="379.313,536.117 426.729,461.993 418.812,528.944 "/>
<polygon fill="none" stroke="#44BBE3" stroke-miterlimit="10" points="469.219,187.492 474.774,294.614 496,228.212 "/>
<polygon fill="none" stroke="#44BBE3" stroke-miterlimit="10" points="437.128,134.445 482.609,109.166 459.869,200.883 "/>
<polygon fill="none" stroke="#44BBE3" stroke-miterlimit="10" points="297.084,115.759 408.5,54.546 408.5,123.411 "/>
<polygon fill="none" stroke="#44BBE3" stroke-miterlimit="10" points="296.713,241.053 437.128,237.228 352.777,284.094 "/>
<polygon fill="none" stroke="#44BBE3" stroke-miterlimit="10" points="279.843,499.055 330.291,476.482 263.136,541.378 "/>
</svg>
