<?xml version="1.0" encoding="utf-8"?>
<!-- Generator: Adobe Illustrator 16.0.0, SVG Export Plug-In . SVG Version: 6.00 Build 0)  -->
<!DOCTYPE svg PUBLIC "-//W3C//DTD SVG 1.1//EN" "http://www.w3.org/Graphics/SVG/1.1/DTD/svg11.dtd">
<svg version="1.1" xmlns="http://www.w3.org/2000/svg" xmlns:xlink="http://www.w3.org/1999/xlink" x="0px" y="0px"
	 width="256.32px" height="256.32px" viewBox="0 0 256.32 256.32" enable-background="new 0 0 256.32 256.32" xml:space="preserve">
<g id="Layer_2">
	<path fill="#45BBE3" d="M21.992,192.564L129.723,84.833c0,0,60.198-65.827,73.801-52.224C185.7,14.785,178.507,7.592,178.507,7.592
		L7.764,178.336L21.992,192.564z"/>
	<path fill="#45BBE3" d="M57.017,227.588l107.73-107.73c0,0,60.198-65.828,73.802-52.224
		c-17.824-17.825-25.018-25.017-25.018-25.017L42.788,213.36L57.017,227.588z"/>
</g>
<g id="Layer_1">
	<g>
		<g>
			<path fill="#FFFFFF" d="M243.252,72.337c-32.793,32.793-65.586,65.586-98.379,98.379c-24.121,24.121-48.243,48.243-72.364,72.364
				c3.536,0,7.071,0,10.606,0c-23.35-23.35-46.699-46.699-70.049-70.048c0,3.536,0,7.071,0,10.606
				c32.793-32.793,65.586-65.586,98.379-98.379c24.121-24.121,48.242-48.243,72.364-72.364c-3.536,0-7.071,0-10.607,0
				c23.35,23.35,46.699,46.699,70.049,70.048c6.846,6.846,17.452-3.761,10.607-10.606c-23.35-23.35-46.699-46.699-70.049-70.048
				c-2.89-2.89-7.718-2.89-10.607,0c-32.792,32.793-65.585,65.586-98.378,98.379C50.703,124.79,26.582,148.911,2.46,173.033
				c-2.89,2.89-2.89,7.717,0,10.606c23.35,23.35,46.699,46.699,70.049,70.048c2.89,2.89,7.717,2.89,10.606,0
				c32.793-32.793,65.586-65.586,98.379-98.379c24.121-24.121,48.242-48.243,72.364-72.364
				C260.704,76.099,250.098,65.492,243.252,72.337z"/>
		</g>
	</g>
	<g>
		<g>
			<path fill="#FFFFFF" d="M0.264,178.336c0,23.349,0,46.699,0,70.048c0,4.088,3.412,7.5,7.5,7.5c23.35,0,46.699,0,70.049,0
				c9.673,0,9.673-15,0-15c-23.35,0-46.699,0-70.049,0c2.5,2.5,5,5,7.5,7.5c0-23.349,0-46.699,0-70.048
				C15.264,168.663,0.264,168.663,0.264,178.336L0.264,178.336z"/>
		</g>
	</g>
	<g>
		<g>
			<path fill="#FFFFFF" d="M2.46,223.041c10.215,10.215,20.431,20.431,30.646,30.646c6.846,6.846,17.452-3.761,10.606-10.606
				c-10.215-10.215-20.431-20.431-30.646-30.646C6.221,205.589-4.385,216.196,2.46,223.041L2.46,223.041z"/>
		</g>
	</g>
	<g>
		<g>
			<path fill="#FFFFFF" d="M48.091,218.663c32.793-32.793,65.586-65.586,98.379-98.379c24.121-24.122,48.242-48.243,72.364-72.364
				c6.845-6.845-3.762-17.452-10.607-10.606c-32.793,32.793-65.585,65.586-98.379,98.379
				c-24.121,24.122-48.243,48.243-72.364,72.364C30.639,214.902,41.246,225.509,48.091,218.663L48.091,218.663z"/>
		</g>
	</g>
</g>
</svg>
