<?xml version="1.0" encoding="utf-8"?>
<!-- Generator: Adobe Illustrator 16.0.0, SVG Export Plug-In . SVG Version: 6.00 Build 0)  -->
<!DOCTYPE svg PUBLIC "-//W3C//DTD SVG 1.1//EN" "http://www.w3.org/Graphics/SVG/1.1/DTD/svg11.dtd">
<svg version="1.1" xmlns="http://www.w3.org/2000/svg" xmlns:xlink="http://www.w3.org/1999/xlink" x="0px" y="0px"
	 width="256.32px" height="256.32px" viewBox="25.34 0 256.32 256.32" enable-background="new 25.34 0 256.32 256.32"
	 xml:space="preserve">
<g id="Layer_2">
	<path fill="#45BBE3" d="M47.709,73.771c-2.367-1.94-3.876-4.887-3.876-8.187C43.833,59.738,48.571,55,54.416,55
		c2.583,0,4.95,0.925,6.788,2.463"/>
	<path fill="#45BBE3" d="M72.375,73.771c-2.367-1.94-3.876-4.887-3.876-8.187C68.5,59.738,73.238,55,79.083,55
		c2.583,0,4.95,0.925,6.788,2.463"/>
	<path fill="#45BBE3" d="M97.061,73.771c-2.367-1.94-3.876-4.887-3.876-8.187c0-5.846,4.738-10.584,10.583-10.584
		c2.583,0,4.95,0.925,6.788,2.463"/>
	<path fill="#45BBE3" d="M234.236,143.126c-0.414-0.276-0.798-0.454-1.078-0.732c-10.992-10.976-21.977-21.961-32.957-32.947
		c-2.702-2.702-3.387-5.808-2.012-9.042c1.434-3.375,4.846-5.724,8.281-5.667c2.089,0.035,3.884,0.844,5.344,2.303
		c13.478,13.458,26.95,26.92,40.402,40.403c3.188,3.198,3.081,8.59-0.176,11.875c-3.591,3.622-7.209,7.216-10.814,10.823
		c-9.623,9.621-19.26,19.23-28.859,28.876c-2.524,2.54-5.433,3.575-8.817,2.272c-3.522-1.354-5.649-4.011-6.014-7.823
		c-0.229-2.381,0.755-4.404,2.44-6.089c9.6-9.599,19.197-19.197,28.797-28.798C230.51,146.845,232.251,145.109,234.236,143.126z"/>
	<path fill="#45BBE3" d="M86.026,142.349c0.538,0.426,0.883,0.652,1.168,0.937c10.989,10.979,21.976,21.961,32.955,32.95
		c2.657,2.657,3.351,5.807,2.018,8.963c-1.442,3.417-4.896,5.8-8.353,5.73c-1.898-0.039-3.537-0.771-4.971-1.988
		c-0.309-0.262-0.6-0.546-0.886-0.832c-13.111-13.106-26.222-26.215-39.329-39.327c-3.074-3.076-3.728-7.22-1.675-10.712
		c0.372-0.632,0.844-1.23,1.362-1.75c13.314-13.334,26.637-26.661,39.968-39.977c3.214-3.21,7.542-3.368,11.145-0.458
		c3.448,2.786,4.377,7.375,2.157,10.854c-0.413,0.647-0.95,1.23-1.494,1.776c-10.954,10.967-21.916,21.927-32.88,32.882
		C86.929,141.68,86.583,141.904,86.026,142.349z"/>
	<path fill="#45BBE3" d="M130.876,184.242c0.411-1.409,0.637-2.908,1.262-4.215c7.948-16.624,15.955-33.218,23.942-49.821
		c5.082-10.563,10.154-21.132,15.233-31.696c1.53-3.185,4.423-4.884,8.169-4.601c3.456,0.262,5.97,2.005,7.239,5.294
		c0.995,2.578,0.601,5.103-0.567,7.536c-2.794,5.832-5.602,11.659-8.405,17.488c-7.636,15.875-15.273,31.751-22.911,47.625
		c-2.584,5.373-5.179,10.743-7.754,16.119c-1.747,3.646-5.605,5.471-9.606,4.51C133.586,191.547,131.068,188.314,130.876,184.242z"
		/>
	<path fill="#5E909E" d="M37.251,64.499"/>
	<path fill="#45BBE3" d="M271.5,204.5V55c3.866,0,7,3.134,7,7v143.5c0,3.866-3.134,7-7,7H44.251c-3.866,0-7-3.134-7-7"/>
</g>
<g id="Layer_1">
	<g>
		<path fill="#FFFFFF" d="M31.463,196.061c0-45.267,0-90.534,0-135.802c0.07-0.253,0.161-0.502,0.206-0.759
			c0.576-3.37,1.874-6.372,4.361-8.806c1.464-1.433,3.277-2.17,5.162-2.798c74.86,0,149.72,0,224.58,0
			c1.738,0.544,3.419,1.197,4.794,2.453c3.523,3.219,4.951,7.341,4.954,11.979c0.023,43.87,0.026,87.737-0.029,131.607
			c-0.003,2.019-0.41,4.115-1.055,6.034c-1.329,3.961-3.818,6.952-8.048,8.132c-0.344,0.096-0.682,0.217-1.021,0.325
			c-74.521,0-149.044,0-223.565,0c-0.053-0.037-0.104-0.104-0.162-0.114c-4.608-0.796-7.317-3.778-8.95-7.903
			C32.137,199.015,31.863,197.513,31.463,196.061z M42.239,83.371c0,0.446,0,0.778,0,1.11c0,35.737-0.002,71.475,0.013,107.213
			c0,0.832,0.183,1.669,0.316,2.499c0.174,1.084,0.727,1.493,1.928,1.493c72.522-0.035,145.044-0.032,217.566-0.032
			c0.202,0,0.439,0.069,0.602-0.013c0.374-0.188,0.934-0.383,1.025-0.693c0.304-1.021,0.605-2.095,0.607-3.149
			c0.03-35.771,0.024-71.541,0.024-107.313c0-0.359,0-0.718,0-1.115C190.247,83.371,116.315,83.371,42.239,83.371z M79.072,75.427
			c5.451,0.005,9.887-4.381,9.922-9.809c0.036-5.457-4.41-9.951-9.875-9.987c-5.418-0.035-9.937,4.491-9.922,9.941
			C69.209,70.994,73.647,75.423,79.072,75.427z M113.451,65.565c0.002-5.495-4.438-9.954-9.894-9.934
			c-5.403,0.021-9.862,4.49-9.868,9.89c-0.005,5.476,4.439,9.911,9.926,9.906C109.063,75.423,113.448,71.025,113.451,65.565z
			 M54.619,75.427c5.475-0.006,9.92-4.482,9.882-9.947c-0.037-5.416-4.525-9.879-9.907-9.849c-5.486,0.031-9.875,4.474-9.855,9.976
			C44.759,71.059,49.161,75.436,54.619,75.427z"/>
		<path fill="#FFFFFF" d="M227.569,140.126c-0.414-0.276-0.798-0.454-1.078-0.732c-10.992-10.976-21.977-21.961-32.957-32.947
			c-2.702-2.702-3.387-5.808-2.012-9.042c1.434-3.375,4.846-5.724,8.281-5.667c2.089,0.035,3.884,0.844,5.344,2.303
			c13.478,13.458,26.95,26.92,40.402,40.403c3.188,3.198,3.081,8.59-0.176,11.875c-3.591,3.622-7.209,7.216-10.814,10.823
			c-9.623,9.621-19.26,19.23-28.859,28.876c-2.524,2.54-5.433,3.575-8.817,2.272c-3.522-1.354-5.649-4.011-6.014-7.823
			c-0.229-2.381,0.755-4.404,2.44-6.089c9.6-9.599,19.197-19.197,28.797-28.798C223.843,143.845,225.584,142.109,227.569,140.126z"
			/>
		<path fill="#FFFFFF" d="M79.359,139.349c0.538,0.426,0.883,0.652,1.168,0.937c10.989,10.979,21.976,21.961,32.955,32.95
			c2.657,2.657,3.351,5.807,2.018,8.963c-1.442,3.417-4.896,5.8-8.353,5.73c-1.898-0.039-3.537-0.771-4.971-1.988
			c-0.309-0.262-0.6-0.546-0.886-0.832c-13.111-13.106-26.222-26.215-39.329-39.327c-3.074-3.076-3.728-7.22-1.675-10.712
			c0.372-0.632,0.844-1.23,1.362-1.75c13.314-13.334,26.637-26.661,39.968-39.977c3.214-3.21,7.542-3.368,11.145-0.458
			c3.448,2.786,4.377,7.375,2.157,10.854c-0.413,0.647-0.95,1.23-1.494,1.776c-10.954,10.967-21.916,21.927-32.88,32.882
			C80.262,138.68,79.917,138.904,79.359,139.349z"/>
		<path fill="#FFFFFF" d="M124.209,181.242c0.411-1.409,0.637-2.908,1.262-4.215c7.948-16.624,15.955-33.218,23.942-49.821
			c5.083-10.563,10.155-21.132,15.234-31.696c1.53-3.185,4.423-4.884,8.169-4.601c3.456,0.262,5.97,2.005,7.239,5.294
			c0.995,2.578,0.601,5.103-0.567,7.536c-2.794,5.832-5.602,11.659-8.405,17.488c-7.636,15.875-15.273,31.751-22.911,47.625
			c-2.584,5.373-5.179,10.743-7.755,16.119c-1.747,3.646-5.605,5.471-9.606,4.51C126.919,188.547,124.401,185.314,124.209,181.242z"
			/>
	</g>
</g>
</svg>
